<svg width="16" height="16" viewBox="0 0 16 16" fill="none" xmlns="http://www.w3.org/2000/svg">
<path fill-rule="evenodd" clip-rule="evenodd" d="M1 11.5238C1 12.8952 2.12778 14 3.52778 14H12.4722C13.8722 14 15 12.8952 15 11.5238V6.57143C15 5.2 13.8722 4.09524 12.4722 4.09524H10.975C10.7805 2.91429 9.75 2 8.48609 2H7.51389C6.25 2 5.2 2.91429 5.025 4.09524H3.52778C2.12778 4.09524 1 5.2 1 6.57143V11.5238ZM7.51389 3.14286H8.48609C9.10836 3.14286 9.6139 3.54285 9.78891 4.09524H6.21111C6.38611 3.54285 6.89166 3.14286 7.51389 3.14286ZM12.4722 5.23809H3.52778C2.76945 5.23809 2.16666 5.82857 2.16666 6.57143V7.58095H13.8334V6.57143C13.8334 5.82857 13.2305 5.23809 12.4722 5.23809ZM12.4722 12.8572H3.52778C2.76945 12.8572 2.16666 12.2666 2.16666 11.5238V8.72381H5.76389V9.42857C5.76389 10.1714 6.36666 10.7619 7.125 10.7619H8.875C9.63336 10.7619 10.2361 10.1714 10.2361 9.42857V8.72381H13.8334V11.5238C13.8334 12.2666 13.2305 12.8572 12.4722 12.8572ZM9.06945 8.72381H6.93055V9.42857C6.93055 9.54285 7.00834 9.61908 7.125 9.61908H8.875C8.99164 9.61908 9.06945 9.54285 9.06945 9.42857V8.72381Z" fill="#12BF66"/>
</svg>
