<svg width="42" height="43" viewBox="0 0 42 43" fill="none" xmlns="http://www.w3.org/2000/svg">
<g filter="url(#filter0_dd_32650_212)">
<path d="M40 21C40 10.5066 31.4934 2 21 2C10.5066 2 2 10.5066 2 21C2 31.4934 10.5066 40 21 40C31.4934 40 40 31.4934 40 21Z" fill="#12BF66"/>
</g>
<path d="M13.4167 22.0835H16.6667M10.1667 17.7502L12.3334 18.8335L13.7099 14.7039C13.994 13.8515 14.1361 13.4253 14.3996 13.1102C14.6323 12.832 14.9311 12.6166 15.2687 12.4838C15.6509 12.3335 16.1002 12.3335 16.9987 12.3335H25.0014C25.8999 12.3335 26.3491 12.3335 26.7314 12.4838C27.0689 12.6166 27.3678 12.832 27.6005 13.1102C27.864 13.4253 28.006 13.8515 28.2902 14.7039L29.6667 18.8335L31.8334 17.7502M25.3334 22.0835H28.5834M15.3667 18.8335H26.6334C28.4535 18.8335 29.3636 18.8335 30.0588 19.1877C30.6704 19.4993 31.1675 19.9965 31.4791 20.608C31.8334 21.3032 31.8334 22.2133 31.8334 24.0335V26.9585C31.8334 27.4619 31.8334 27.7136 31.7917 27.9229C31.6208 28.7824 30.9489 29.4542 30.0894 29.6252C29.8801 29.6668 29.6284 29.6668 29.125 29.6668H28.5834C27.3867 29.6668 26.4167 28.6968 26.4167 27.5002C26.4167 27.201 26.1742 26.9585 25.875 26.9585H16.125C15.8259 26.9585 15.5834 27.201 15.5834 27.5002C15.5834 28.6968 14.6133 29.6668 13.4167 29.6668H12.875C12.3716 29.6668 12.12 29.6668 11.9107 29.6252C11.0512 29.4542 10.3793 28.7824 10.2083 27.9229C10.1667 27.7136 10.1667 27.4619 10.1667 26.9585V24.0335C10.1667 22.2133 10.1667 21.3032 10.5209 20.608C10.8325 19.9965 11.3297 19.4993 11.9412 19.1877C12.6364 18.8335 13.5465 18.8335 15.3667 18.8335Z" stroke="white" stroke-width="2" stroke-linecap="round" stroke-linejoin="round"/>
<defs>
<filter id="filter0_dd_32650_212" x="0" y="0" width="42" height="43" filterUnits="userSpaceOnUse" color-interpolation-filters="sRGB">
<feFlood flood-opacity="0" result="BackgroundImageFix"/>
<feColorMatrix in="SourceAlpha" type="matrix" values="0 0 0 0 0 0 0 0 0 0 0 0 0 0 0 0 0 0 127 0" result="hardAlpha"/>
<feOffset/>
<feGaussianBlur stdDeviation="1"/>
<feColorMatrix type="matrix" values="0 0 0 0 0 0 0 0 0 0 0 0 0 0 0 0 0 0 0.06 0"/>
<feBlend mode="normal" in2="BackgroundImageFix" result="effect1_dropShadow_32650_212"/>
<feColorMatrix in="SourceAlpha" type="matrix" values="0 0 0 0 0 0 0 0 0 0 0 0 0 0 0 0 0 0 127 0" result="hardAlpha"/>
<feOffset dy="1"/>
<feGaussianBlur stdDeviation="1"/>
<feColorMatrix type="matrix" values="0 0 0 0 0 0 0 0 0 0 0 0 0 0 0 0 0 0 0.15 0"/>
<feBlend mode="normal" in2="effect1_dropShadow_32650_212" result="effect2_dropShadow_32650_212"/>
<feBlend mode="normal" in="SourceGraphic" in2="effect2_dropShadow_32650_212" result="shape"/>
</filter>
</defs>
</svg>
