<svg width="16" height="16" viewBox="0 0 16 16" fill="none" xmlns="http://www.w3.org/2000/svg">
<g clip-path="url(#clip0_25495_5638)">
<path fill-rule="evenodd" clip-rule="evenodd" d="M12.5653 4.5303C12.5653 6.20846 11.6321 7.67514 10.2498 8.45808C13.009 9.38531 15 11.9664 15 15H14.0129C14.0129 11.725 11.3157 9.06061 8 9.06061C4.6845 9.06061 1.98709 11.725 1.98709 15H1C1 11.9856 2.9663 9.41737 5.69842 8.47539C4.29937 7.69699 3.35242 6.22075 3.35242 4.5303C3.35242 2.03233 5.4189 0 7.95887 0C10.4988 0 12.5653 2.03233 12.5653 4.5303ZM7.95887 0.970781C5.96312 0.970781 4.33951 2.56755 4.33951 4.5303C4.33951 6.4929 5.96312 8.08983 7.95887 8.08983C9.95461 8.08983 11.5782 6.49306 11.5782 4.5303C11.5782 2.56755 9.95461 0.970781 7.95887 0.970781Z" fill="#12BF66" stroke="#12BF66" stroke-linecap="round" stroke-linejoin="round"/>
</g>
<defs>
<clipPath id="clip0_25495_5638">
<rect width="16" height="16" fill="white"/>
</clipPath>
</defs>
</svg>
