<svg width="20" height="20" viewBox="0 0 20 20" fill="none" xmlns="http://www.w3.org/2000/svg">
<path fill-rule="evenodd" clip-rule="evenodd" d="M9.99787 2C8.34187 2 7.00087 3.343 7.00087 5C7.00087 6.657 8.34187 8 9.99787 8C11.6529 8 12.9949 6.657 12.9949 5C12.9949 3.343 11.6529 2 9.99787 2ZM13.4029 8.65799C14.3809 7.74499 14.9929 6.444 14.9929 5C14.9929 2.239 12.7559 0 9.99787 0C7.23887 0 5.00287 2.239 5.00287 5C5.00287 6.445 5.61487 7.747 6.59387 8.659C3.61687 9.853 1.28187 12.562 0.166871 15.9C-0.584129 18.147 1.32687 20 3.35887 20H16.6409C18.6729 20 20.5839 18.147 19.8329 15.9C18.7169 12.561 16.3809 9.85199 13.4029 8.65799ZM9.99987 10C6.50787 10 3.37587 12.603 2.06187 16.534C1.84687 17.176 2.34787 18 3.35887 18H16.6409C17.6519 18 18.1529 17.176 17.9379 16.534C16.6239 12.603 13.4919 10 9.99987 10Z" stroke="" stroke-width="2" fill="none"/>
</svg>
