<svg width="38" height="38" viewBox="0 0 38 38" fill="none" xmlns="http://www.w3.org/2000/svg">
<path d="M6.70623 24.8769H32.293C33.246 24.8769 34.1101 24.3905 34.6044 23.5757C35.0986 22.7606 35.1307 21.7695 34.6903 20.9243L31.2846 14.3893C30.8384 13.5323 29.9606 13 28.9943 13H10.0049C9.03865 13 8.16107 13.5323 7.71468 14.3893L4.30891 20.9243C3.86851 21.7695 3.90064 22.7606 4.3948 23.5757C4.88917 24.3905 5.75326 24.8769 6.70623 24.8769ZM4.69789 21.1269L8.10367 14.5919C8.47423 13.8806 9.20273 13.4387 10.0049 13.4387H28.9943C29.7965 13.4387 30.525 13.8806 30.8956 14.5919L34.3014 21.1269C34.6702 21.8351 34.6434 22.6655 34.2294 23.3482C33.8153 24.0306 33.0913 24.4383 32.293 24.4383H6.70623C5.90791 24.4383 5.18391 24.0306 4.76986 23.3482C4.35582 22.6655 4.32904 21.8351 4.69789 21.1269Z" fill="#6F7880" stroke="#6F7880"/>
<path d="M10.2869 22.2287H13.3577C13.4788 22.2287 13.577 22.1304 13.577 22.0093V19.3958C13.577 19.2644 13.6835 19.1579 13.815 19.1579H15.9712C16.1026 19.1579 16.2091 19.2644 16.2091 19.3958V22.0093C16.2091 22.1304 16.3073 22.2287 16.4284 22.2287H19.4992C19.6203 22.2287 19.7185 22.1304 19.7185 22.0093V19.3958C19.7185 19.2644 19.8251 19.1579 19.9565 19.1579H22.1127C22.2441 19.1579 22.3506 19.2644 22.3506 19.3958V22.0093C22.3506 22.1304 22.4488 22.2287 22.57 22.2287H25.6407C25.7619 22.2287 25.8601 22.1304 25.8601 22.0093V19.3958C25.8601 19.2644 25.9666 19.1579 26.098 19.1579H28.7115C28.8326 19.1579 28.9308 19.0597 28.9308 18.9385V15.8678C28.9308 15.7466 28.8326 15.6484 28.7115 15.6484H25.6407C25.5196 15.6484 25.4214 15.7466 25.4214 15.8678V18.4813C25.4214 18.6127 25.3149 18.7192 25.1835 18.7192H23.0273C22.8958 18.7192 22.7893 18.6127 22.7893 18.4813V15.8678C22.7893 15.7466 22.6911 15.6484 22.57 15.6484H19.4992C19.3781 15.6484 19.2799 15.7466 19.2799 15.8678V18.4813C19.2799 18.6127 19.1733 18.7192 19.0419 18.7192H16.8857C16.7543 18.7192 16.6478 18.6127 16.6478 18.4813V15.8678C16.6478 15.7466 16.5496 15.6484 16.4284 15.6484H13.3577C13.2365 15.6484 13.1383 15.7466 13.1383 15.8678V18.4813C13.1383 18.6127 13.0318 18.7192 12.9004 18.7192H10.2869C10.1658 18.7192 10.0676 18.8174 10.0676 18.9385V22.0093C10.0676 22.1304 10.1658 22.2287 10.2869 22.2287Z" fill="#6F7880"/>
</svg>
