<svg width="23" height="23" viewBox="0 0 23 23" fill="none" xmlns="http://www.w3.org/2000/svg">
<path d="M8.77583 19.9059V16.967C8.77581 16.2195 9.38523 15.6121 10.1403 15.607H12.9061C13.6648 15.607 14.2798 16.2159 14.2798 16.967V16.967V19.9151C14.2796 20.5498 14.7913 21.0685 15.4322 21.0834H17.2761C19.1142 21.0834 20.6043 19.6082 20.6043 17.7884V17.7884V9.42795C20.5945 8.71206 20.255 8.03981 19.6824 7.60251L13.3763 2.57343C12.2716 1.69777 10.7011 1.69777 9.59635 2.57343L3.31794 7.61164C2.74316 8.04717 2.40308 8.72053 2.396 9.43707V17.7884C2.396 19.6082 3.88608 21.0834 5.7242 21.0834H7.56808C8.22492 21.0834 8.75739 20.5562 8.75739 19.9059V19.9059" stroke="" stroke-width="1.5" stroke-linecap="round" stroke-linejoin="round"/>
</svg>
